<?xml version="1.0" standalone="no"?>
<!DOCTYPE svg PUBLIC "-//W3C//DTD SVG 20010904//EN"
 "http://www.w3.org/TR/2001/REC-SVG-20010904/DTD/svg10.dtd">
<svg version="1.0" xmlns="http://www.w3.org/2000/svg"
 width="260.000000pt" height="260.000000pt" viewBox="0 0 260.000000 260.000000"
 preserveAspectRatio="xMidYMid meet">
<metadata>
Created by potrace 1.11, written by Peter Selinger 2001-2013
</metadata>
<g transform="translate(0.000000,260.000000) scale(0.100000,-0.100000)"
fill="#000000" stroke="none">
<path d="M821 2432 c-6 -10 -11 -68 -13 -128 l-3 -109 -102 2 c-99 1 -101 1
-107 -23 -5 -17 -13 -24 -31 -24 -14 0 -42 -9 -62 -20 -39 -21 -135 -28 -161
-12 -7 5 -15 40 -18 83 -3 41 -11 77 -18 81 -6 4 -37 8 -68 8 -70 0 -78 -11
-78 -103 0 -76 -2 -77 -96 -77 l-64 0 0 -249 0 -250 65 2 c49 1 68 -2 75 -13
6 -8 9 -78 7 -155 l-2 -140 -72 -3 -73 -3 0 -649 0 -650 169 0 170 0 -2 65
c-2 77 5 85 75 85 75 0 78 -3 78 -81 l0 -69 250 0 249 0 3 67 c3 66 3 67 36
77 20 5 44 5 65 0 32 -10 32 -11 35 -77 l3 -67 734 0 735 0 0 246 0 246 -127
-2 c-197 -3 -179 -8 -187 49 -3 27 -2 61 4 76 l10 27 150 -7 150 -7 0 496 0
496 -56 0 c-84 0 -94 9 -94 84 0 74 2 76 91 76 l59 0 0 255 0 255 -79 0 c-53
0 -83 -4 -88 -12 -4 -7 -10 -42 -13 -78 l-5 -65 -110 -8 c-177 -12 -185 -8
-185 100 0 63 -21 83 -91 83 -65 0 -79 -19 -79 -106 0 -41 -5 -75 -12 -82 -18
-18 -49 -14 -75 9 -17 17 -41 24 -100 29 -43 4 -85 11 -95 15 -21 8 -74 -19
-88 -46 -10 -17 -18 -19 -53 -14 -62 8 -90 -10 -102 -69 -11 -51 -29 -68 -63
-59 -17 4 -22 13 -22 39 0 19 -7 51 -15 71 -9 21 -15 67 -15 112 0 47 -5 82
-12 89 -7 7 -39 12 -73 12 -78 0 -95 -16 -95 -86 0 -27 -3 -59 -6 -71 -7 -26
-47 -37 -98 -27 l-36 6 0 153 c0 175 6 165 -95 165 -52 0 -66 -3 -74 -18z
m-193 -570 c3 -85 -2 -89 -81 -76 -50 9 -52 10 -60 50 -4 24 -4 52 2 67 9 23
17 26 63 30 29 1 58 2 63 2 6 -1 11 -34 13 -73z m672 -257 c0 -17 -39 -55 -57
-55 -11 0 -43 48 -43 65 0 3 23 5 50 5 37 0 50 -4 50 -15z m638 -58 c3 -62 -8
-87 -38 -87 -26 0 -39 70 -24 128 5 18 13 22 33 20 24 -3 26 -7 29 -61z
m-1309 -169 c-1 -40 -5 -102 -9 -138 -6 -61 -7 -62 -8 -18 -2 42 -5 49 -32 63
-19 10 -71 18 -131 22 -95 6 -101 8 -110 30 -12 31 -11 55 1 87 l10 26 140 0
140 0 -1 -72z m981 -164 c0 -34 -4 -53 -10 -49 -18 11 -12 105 7 105 2 0 3
-25 3 -56z m640 -94 c11 -6 14 -26 13 -69 0 -33 -4 -65 -8 -70 -8 -14 -250
-15 -276 -1 -15 9 -19 22 -19 68 0 32 5 63 12 70 15 15 255 17 278 2z m-1620
-224 c0 -82 -11 -100 -54 -91 -14 3 -37 7 -51 10 -24 5 -25 9 -25 70 0 35 5
67 11 70 13 9 102 23 112 18 4 -2 7 -37 7 -77z m985 -6 l0 -75 -65 0 -65 0 -3
68 c-3 62 -1 68 20 77 13 5 43 8 68 7 l45 -2 0 -75z m-487 58 c17 -17 15 -103
-2 -117 -9 -7 -38 -11 -73 -9 l-58 3 -8 40 c-5 25 -5 50 2 68 10 25 14 27 69
27 32 0 63 -5 70 -12z m1280 3 c9 -5 12 -25 10 -62 l-3 -54 -65 0 -65 0 -3 49
c-5 71 -1 76 60 76 29 0 59 -4 66 -9z m-1444 -182 c8 -40 8 -83 0 -103 -5 -12
-21 -16 -68 -16 -55 0 -65 3 -90 29 -23 24 -25 29 -11 35 9 3 27 6 40 6 43 0
55 10 55 46 0 32 2 34 34 34 30 0 34 -4 40 -31z m-363 -26 c7 -20 6 -28 -3
-35 -15 -9 -58 -11 -58 -3 0 7 42 65 47 65 2 0 8 -12 14 -27z m517 -115 c14
-14 16 -106 3 -127 -14 -22 -121 -19 -138 4 -13 19 -18 116 -6 128 11 12 128
8 141 -5z m642 -173 c20 -22 22 -29 14 -67 -8 -38 -13 -44 -44 -51 -22 -6 -45
-5 -62 2 -26 10 -28 15 -28 64 0 29 5 58 12 65 22 22 82 14 108 -13z m518 -35
c3 -76 -5 -85 -78 -85 -71 0 -80 9 -80 76 0 61 12 70 90 67 l65 -3 3 -55z
m-1646 -116 c13 -8 9 -119 -4 -132 -7 -7 -35 -12 -64 -12 -59 0 -64 6 -64 78
0 54 7 68 35 75 20 5 83 -1 97 -9z"/>
</g>
</svg>
